<svg xmlns="http://www.w3.org/2000/svg" viewBox="0 0 500 500"><path fill="#04a1da" stroke="#04a1da" d="M0 250.002v250.002l250.25-.252 250.25-.252.252-249.75L501.004 0H0v250.002m.492.498c0 137.5.116 193.601.258 124.67.142-68.932.142-181.432 0-250C.608 56.601.492 113 .492 250.5M239.286 76.451c-32.486 10.152-36.007 54.263-5.525 69.231 7.988 3.922 24.028 4.144 31.519.436 21.694-10.74 28.345-37.661 13.966-56.534-9.223-12.105-25.808-17.556-39.96-13.133m6.381 10.216c-.367.366-.667 1.893-.667 3.391 0 2.002-.605 2.877-2.278 3.297-6.152 1.544-8.198 5.859-8.514 17.958-.339 12.965 1.034 16.56 7.173 18.78 2.854 1.032 3.576 1.853 3.819 4.34.278 2.837.618 3.09 4.55 3.374l4.25.308v-3.558c0-2.947.36-3.557 2.1-3.557 3.818 0 8.9-6.224 8.9-10.9V116h-4.5c-4.296 0-4.5.131-4.5 2.893 0 3.2-1.411 4.107-6.391 4.107-5.938 0-6.73-1.425-6.401-11.518l.292-8.982 6.25-.298 6.25-.297v3.047c0 2.946.151 3.048 4.5 3.048h4.5v-3.865c0-4.754-2.794-8.57-7.53-10.282-3.005-1.087-3.47-1.697-3.47-4.554 0-3.158-.164-3.299-3.833-3.299-2.109 0-4.134.3-4.5.667M282.18 340.25c.21 1.477 1.007 2.25 2.32 2.25s2.11-.773 2.32-2.25c.262-1.846-.155-2.25-2.32-2.25s-2.582.404-2.32 2.25M119 352.099v13.1l8.965-.35c6.772-.263 9.382-.766 10.667-2.051 2.324-2.326 2.192-7.707-.238-9.704-1.857-1.526-1.864-1.669-.167-3.344 2.351-2.32 2.248-6.275-.227-8.75-1.686-1.686-3.333-2-10.5-2H119v13.099m26-.099v13h5v-26h-5v13m53 0c0 12.333.103 13 2 13 1.547 0 2-.667 2-2.941 0-4.54 1.918-4.753 5.404-.6 2.29 2.728 3.767 3.645 5.458 3.39 2.282-.343 2.26-.426-1.354-5.147-4.001-5.226-4.033-4.968 1.379-10.952l2.487-2.75h-2.801c-2.026 0-3.866 1.177-6.646 4.25l-3.845 4.25-.041-7.75c-.037-7.07-.217-7.75-2.041-7.75-1.897 0-2 .667-2 13m40 0c0 12.333.103 13 2 13 1.788 0 2-.667 2-6.3 0-6.954 1.022-8.7 5.093-8.7 3.294 0 3.907 1.425 3.907 9.082 0 5.251.225 5.918 2 5.918 2.622 0 3.075-15.863.514-17.989-1.48-1.228-6.43-1.003-9.764.444-1.523.661-1.75.162-1.75-3.848 0-3.94-.289-4.607-2-4.607-1.897 0-2 .667-2 13m80.387-9.716c-9.052 8.296-3.123 22.701 9.347 22.712 3.251.003 4.979-.661 7.439-2.86l3.205-2.863-2.271-1.216c-1.875-1.003-2.475-.942-3.439.35C328.757 363.65 319 359.076 319 352c0-6.505 7.714-10.99 12.788-7.436 2.458 1.722 6.396 1.079 5.63-.918-2.067-5.384-13.731-6.219-19.031-1.362m-193.981 2.1c-1.233 3.214.028 5.109 3.602 5.411 4.599.387 7.933-1.954 6.39-4.486-1.456-2.391-9.156-3.104-9.992-.925m32.9 4.029c-6.519 5.608-2.198 16.587 6.527 16.587 6.84 0 10.9-5.628 9.017-12.5-1.807-6.592-10.097-8.772-15.544-4.087m24.194-1.258c-4.146 2.267-5.859 8.141-3.879 13.3 1.476 3.847 10.197 5.861 13.841 3.197 2.803-2.05 1.012-3.832-3.08-3.064-2.578.484-3.962.197-5.422-1.124-4.462-4.038-.764-10.213 5.422-9.052 4.092.768 5.883-1.014 3.08-3.064-2.207-1.613-7.189-1.71-9.962-.193m39.799.348c-5.058 3.543-4.721 13.595.551 16.417 2.792 1.494 8.395 1.353 10.612-.268 2.841-2.078 1.006-3.75-3.351-3.054-4.366.698-7.111-1.27-7.111-5.098s2.745-5.796 7.111-5.098c4.357.696 6.192-.976 3.351-3.054-2.458-1.797-8.496-1.713-11.163.155m41.142-.07c-2.857 2.108-.67 4.084 2.78 2.512 3.195-1.455 6.779.214 6.779 3.158 0 1.667-.404 1.894-2.25 1.266-5.574-1.898-9.75.107-9.75 4.682 0 5.072 5.11 7.566 10.066 4.914 1.333-.714 1.934-.714 1.934 0 0 .569 1.174 1.035 2.609 1.035h2.61l-.385-7.609c-.328-6.508-.722-7.882-2.72-9.5-2.784-2.254-8.914-2.495-11.673-.458M282 355.5c0 9.467.009 9.5 2.5 9.5s2.5-.033 2.5-9.5-.009-9.5-2.5-9.5-2.5.033-2.5 9.5m10 0c0 9.467.009 9.5 2.5 9.5 2.428 0 2.5-.201 2.5-6.981 0-6.611.132-7.014 2.498-7.608 4.701-1.18 5.502-.079 5.502 7.558 0 6.364.19 7.031 2 7.031 1.839 0 2-.667 2-8.3 0-10.395-3.114-13.385-10.066-9.665-1.333.714-1.934.714-1.934 0 0-.569-1.125-1.035-2.5-1.035-2.491 0-2.5.033-2.5 9.5m52.25-8.469c-1.238.498-2.25 1.342-2.25 1.878 0 1.728 1.789 2.144 4.299 1.001 3.113-1.419 6.701.286 6.701 3.184 0 1.179-.445 1.749-1.066 1.365-4.195-2.592-10.934.186-10.934 4.508 0 4.922 7.4 8.233 10.8 4.833.933-.933 1.2-.933 1.2 0 0 .66 1.125 1.2 2.5 1.2 2.444 0 2.5-.167 2.5-7.5 0-10.564-4.669-14.119-13.75-10.469M363 359v13h2.5c2.289 0 2.5-.372 2.5-4.413v-4.413l2.824 1.066c4.019 1.517 7.878.237 9.658-3.205 4.367-8.444-1.629-17.305-9.658-14.275-1.592.601-2.824.668-2.824.153 0-.502-1.125-.913-2.5-.913H363v13m-202.8-7.8c-3.118 3.118-.781 9.8 3.429 9.8 2.901 0 5.371-2.53 5.371-5.5 0-4.494-5.781-7.319-8.8-4.3m209.05-.538c-.734.296-1.25 2.32-1.25 4.902 0 7.245 8.105 7.722 8.818.52.495-5.002-2.785-7.352-7.568-5.422m-245.067 6.525c.356 3.7 1.906 4.394 7.478 3.349 3.042-.571 3.423-.976 3.15-3.343-.289-2.502-.688-2.715-5.628-2.998l-5.318-.304.318 3.296m140.828.3c-.679.818-.963 2.197-.63 3.064.89 2.319 6.987 1.557 7.459-.931.634-3.343-4.495-4.945-6.829-2.133m81.094-.114c-.627.756-.849 2.13-.495 3.054.921 2.398 6.746 1.748 7.23-.807.619-3.261-4.482-4.962-6.735-2.247" fill-rule="evenodd"/><path fill="#043464" stroke="#043464" d="M0 250.002v250.002l250.25-.252 250.25-.252.252-249.75L501.004 0H0v250.002m.492.498c0 137.5.116 193.601.258 124.67.142-68.932.142-181.432 0-250C.608 56.601.492 113 .492 250.5M188.718 94.159 125 146.086V163h255.078l-.289-8.669-.289-8.668L319 96.298c-33.275-27.15-61.864-50.422-63.532-51.716l-3.032-2.351-63.718 51.928M151.237 216.75l.263 34.75 15.25.276 15.25.276V182h-31.026l.263 34.75m83.763.276v35.026l15.25-.276 15.25-.276.263-34.75.263-34.75H235v35.026m84-.026v35h30v-70h-30v35m-194 62.5v9.5h251v-19H125v9.5m157.105 58.873c-1.649 1.988-.27 4.627 2.419 4.627 2.663 0 3.602-1.73 2.306-4.25-1.079-2.098-3.159-2.264-4.725-.377m39.291 1.004c-9.585 4.334-10.292 19.511-1.129 24.268 6.418 3.332 16.559 1.068 17.54-3.916.455-2.309-3.582-3.242-5.707-1.319-4.786 4.331-12.1.456-12.1-6.41 0-6.857 7.313-10.742 12.088-6.42 1.394 1.262 2.177 1.348 3.89.432 6.658-3.564-7.313-9.921-14.582-6.635M119 352v13h8.826c7.932 0 9.045-.234 11-2.314 2.709-2.884 2.8-7.17.2-9.396-1.817-1.556-1.847-1.83-.375-3.457 2.114-2.336 2.03-6.423-.181-8.866-1.514-1.674-3.1-1.967-10.625-1.967H119v13m26 0v13h5v-26h-5v13m52 0v13h2.5c1.966 0 2.5-.508 2.5-2.378 0-4.504 2.544-5.096 4.978-1.158 1.821 2.947 2.762 3.536 5.649 3.536h3.464l-3.973-5.21-3.972-5.209 3.659-4.041 3.66-4.04-2.983-.342c-2.477-.284-3.616.393-6.729 4l-3.748 4.342-.002-7.75c-.003-7.599-.052-7.75-2.503-7.75H197v13m41 0v13h2.454c2.33 0 2.47-.337 2.75-6.646.311-6.973 1.82-9.326 5.16-8.045 1.3.499 1.636 2.072 1.636 7.66V365h6v-7.066c0-10.616-3.634-14.76-10.111-11.528L243 347.847v-4.424c0-4.051-.21-4.423-2.5-4.423H238v13m-113-5.5c0 2.287.374 2.5 4.393 2.5 4.327 0 5.792-1.126 4.876-3.75-.26-.746-2.218-1.25-4.852-1.25-4.045 0-4.417.211-4.417 2.5m34.329-.054c-7.553 3.314-7.432 14.942.189 18.126 10.154 4.243 19.113-7.583 11.732-15.484-3.324-3.558-7.649-4.517-11.921-2.642m22.672.306c-11.901 5.947-3.659 22.892 8.637 17.755 3.524-1.473 3.592-1.595 1.912-3.452-1.402-1.549-2.186-1.722-4.02-.887-3.616 1.648-6.53-.46-6.53-4.725 0-4.168 3.313-6.416 6.748-4.578 1.598.855 2.356.677 3.772-.887 1.719-1.9 1.665-2.003-1.842-3.468-4.493-1.877-4.433-1.879-8.677.242m42.283-1.025c-3.397.618-7.284 5.866-7.284 9.834 0 7.646 10.706 13.162 15.753 8.115 2.37-2.371-.001-4.976-3.202-3.517-4.441 2.023-8.911-2.749-6.607-7.054 1.352-2.526 4.445-3.502 6.913-2.181 1.461.782 2.243.661 3.202-.495 2.301-2.772-3.196-5.718-8.775-4.702m40.544.252c-4.341 1.31-4.943 1.937-3.84 3.998.861 1.609 1.398 1.704 4.028.711 3.436-1.297 6.25-.162 6.823 2.752.284 1.444.009 1.549-1.684.643-4.717-2.524-11.155.249-11.155 4.806 0 2.934 3.275 6.306 6.034 6.212 1.356-.046 4.603-.098 7.216-.114l4.75-.03v-7.044c0-8.316-.872-10.324-5.128-11.808-3.551-1.238-3.374-1.234-7.044-.126m34.922.463c-1.512.791-2.75 1.016-2.75.499 0-.518-1.125-.941-2.5-.941-2.491 0-2.5.033-2.5 9.5s.009 9.5 2.5 9.5c2.411 0 2.5-.232 2.5-6.521 0-6.059.185-6.606 2.61-7.711 3.701-1.686 5.39.953 5.39 8.423 0 5.53.12 5.809 2.5 5.809 2.456 0 2.5-.138 2.5-7.929 0-7.646-1.234-11.071-3.99-11.071-.465 0-1.446-.225-2.178-.499-.733-.275-2.57.149-4.082.941m45.424.069c-3.327 1.457-4.322 5.522-1.115 4.555 4.465-1.347 8.444-.547 8.771 1.762.291 2.053.092 2.2-1.685 1.25-4.545-2.433-11.145.792-11.145 5.446 0 2.863 3.613 5.745 7.068 5.639 1.888-.058 5.12-.108 7.182-.11l3.75-.005v-7.869c0-10.537-4.527-14.302-12.826-10.668m25.576-.057c-1.512.785-2.75 1.004-2.75.487 0-.518-1.125-.941-2.5-.941H363v26h2.5c2.29 0 2.5-.372 2.5-4.423v-4.424l2.889 1.441c5.658 2.823 11.111-1.722 11.111-9.261 0-7.139-5.794-11.712-11.25-8.879M282 355.5c0 9.467.009 9.5 2.5 9.5s2.5-.033 2.5-9.5-.009-9.5-2.5-9.5-2.5.033-2.5 9.5m-121.345-3.671c-3.734 4.125.002 10.56 4.849 8.351 4.589-2.091 2.775-10.18-2.283-10.18-.501 0-1.656.823-2.566 1.829m209.095-.749c-2.845 1.657-2.351 7.689.746 9.1 4.935 2.249 8.798-4.794 4.675-8.525-2.099-1.9-2.985-1.994-5.421-.575M125 357.055c0 3.019.054 3.051 4.741 2.75 7.996-.514 7.099-5.757-.991-5.79-3.518-.014-3.75.174-3.75 3.04m140.18 2.195c.345 2.424 3.34 3.397 5.716 1.857 2.332-1.512.478-4.107-2.934-4.107-2.644 0-3.054.332-2.782 2.25m81.182-.75c-.91 2.369 1.079 3.857 4.131 3.091 1.778-.446 2.534-1.222 2.315-2.377-.443-2.338-5.604-2.909-6.446-.714" fill-rule="evenodd"/><path fill="#041c3c" stroke="#041c3c" d="M0 250.002v250.002l250.25-.252 250.25-.252.252-249.75L501.004 0H0v250.002m.492.498c0 137.5.116 193.601.258 124.67.142-68.932.142-181.432 0-250C.608 56.601.492 113 .492 250.5M240.5 51.106c-9.317 7.668-25.082 20.566-42 34.364-2.2 1.794-11.65 9.485-21 17.091-9.35 7.606-20.872 17.004-25.604 20.884a4375.811 4375.811 0 0 1-18.288 14.889l-9.683 7.835.287 8.665.288 8.666 7.25.294 7.25.294V182h11v70h-10.922l-.289 8.75-.289 8.75-7.25.294-7.25.294V289h-9v23h270v-23h-9v-19h-14v-18h-12v-70h12V164.075l9.25-.287 9.25-.288.288-8.66.287-8.66-26.787-21.8a40821.338 40821.338 0 0 1-40.305-32.84A16374.368 16374.368 0 0 0 285.072 68c-8.466-6.875-19.033-15.529-23.483-19.231-4.449-3.702-8.539-6.727-9.089-6.723-.55.004-5.95 4.081-12 9.06M194 173v9h-11v70h10.922l.289 8.75.289 8.75 13.75.278 13.75.278V252h12v-70h-12v-18h-28v9m84 0v9h-12v70h12v18h28v-18h12v-70h-12v-18h-28v9m3.667 164.667c-1.31 1.309-.635 4.28 1.195 5.259 2.699 1.445 5.605-.878 4.693-3.752-.668-2.104-4.349-3.046-5.888-1.507M119 351.5V365h8.777c10.862 0 13.223-1.259 13.223-7.048 0-2.747-.559-4.284-1.852-5.092-1.802-1.125-1.802-1.206 0-3.008 6.02-6.02-.18-11.852-12.598-11.852H119v13.5m26 0V365h5v-27h-5v13.5m52 0V365h3c2.667 0 3-.333 3-3 0-3.805.866-3.79 4.039.07 2.066 2.513 3.154 3.027 5.841 2.759l3.302-.329-3.674-4.798c-4.001-5.226-4.033-4.968 1.379-10.952l2.487-2.75h-3.864c-3.122 0-4.399.624-6.647 3.25l-2.782 3.25-.04-7.25L203 338h-6v13.5m40 0V365h6v-6.532c0-5.86.232-6.619 2.25-7.369 3.99-1.483 4.75-.362 4.75 7.008V365h6v-8c0-10.825-2.9-13.889-10.435-11.025-2.517.957-2.565.891-2.565-3.5 0-4.306-.114-4.475-3-4.475h-3v13.5m83.304-11.544c-13.53 8.25-5.159 29.487 10.112 25.654 2.508-.629 8.584-5.235 8.584-6.506 0-1.943-5.498-2.606-7.232-.872-2.487 2.487-6.43 2.197-9.313-.687-6.825-6.824 1.549-17.433 9.412-11.925 2.808 1.966 7.492.478 6.514-2.069-1.908-4.972-12.397-7.058-18.077-3.595M125 346.5c0 2.458.255 2.597 4.25 2.307 3.481-.251 4.25-.669 4.25-2.307s-.769-2.056-4.25-2.307c-3.995-.29-4.25-.151-4.25 2.307m34.5-.555c-9.159 3.749-7.6 17.82 2.177 19.654 6.858 1.287 12.323-3.098 12.323-9.887 0-8.08-7.038-12.821-14.5-9.767m21.61.396c-7.035 4.06-6.524 15.588.826 18.633 5.999 2.484 14.318-1.149 10.765-4.702-1.304-1.304-2.107-1.408-4.048-.524-1.888.86-2.886.777-4.537-.379-4.683-3.281-.657-10.484 4.537-8.117 3.438 1.566 6.658-1.37 4.199-3.829-2.169-2.169-8.799-2.78-11.742-1.082m40.665.164c-5.437 3.059-6.629 11.228-2.362 16.189 2.973 3.456 11.253 4.068 14.266 1.056 2.526-2.527-.402-5.624-3.892-4.117-3.26 1.408-5.692.594-6.377-2.134-1.316-5.244 1.705-8.15 6.377-6.132 1.757.759 2.675.599 3.964-.69 3.794-3.793-6.361-7.331-11.976-4.172m41.304-.24c-4.788 2.443-3.407 6.44 1.575 4.559 3.368-1.271 6.346-.604 6.346 1.421 0 .925-1.184 1.195-4.05.922-4.92-.47-7.95 1.813-7.95 5.988 0 4.704 3.384 7.201 8.759 6.465 2.486-.341 5.582-.62 6.881-.62 2.278 0 2.359-.268 2.345-7.75-.009-4.262-.346-8.245-.75-8.85-2.18-3.265-8.828-4.344-13.156-2.135m37.007-.339c-.778.492-2.915.651-4.75.354l-3.336-.542v9.631c0 9.606.006 9.631 2.5 9.631 2.404 0 2.5-.244 2.5-6.339 0-5.609.259-6.456 2.25-7.349 3.963-1.777 4.75-.655 4.75 6.771V365h6v-8.443c0-7.592-.224-8.601-2.223-10-2.475-1.735-5.55-1.987-7.691-.631m44.114.586c-2.932 1.274-3.174 1.668-2.173 3.538.766 1.432 1.662 1.884 2.8 1.414 3.722-1.537 5.253-1.642 6.678-.46 2.535 2.104 1.68 2.771-2.888 2.256-7.778-.876-11.654 6.206-5.882 10.746 2.011 1.582 3.534 1.992 5.75 1.549 1.658-.331 4.703-.573 6.765-.538l3.75.064v-5.415c0-13.203-4.822-17.489-14.8-13.154m26.431-.81c-.386.386-2.261.597-4.166.469l-3.465-.234V373h2.5c2.289 0 2.5-.372 2.5-4.413v-4.413l2.964 1.119c9.372 3.537 16.006-10.414 8.515-17.905-2.292-2.292-7.289-3.244-8.848-1.686M282 355.5c0 9.467.009 9.5 2.5 9.5s2.5-.033 2.5-9.5-.009-9.5-2.5-9.5-2.5.033-2.5 9.5m-121.902-2.25c-1.151 3.09.174 6.184 2.816 6.577 2.82.419 5.086-1.473 5.086-4.249 0-4.676-6.333-6.541-7.902-2.328m208.569-1.583c-1.726 1.725-.635 7.41 1.583 8.247 4.271 1.613 7.352-2.053 5.633-6.701-.802-2.168-5.573-3.19-7.216-1.546M125 357.5c0 2.945 6.735 3.729 8.964 1.044 1.9-2.29.299-3.544-4.523-3.544-4.07 0-4.441.209-4.441 2.5m140.323 1.101c-.525 1.367 1.066 3.368 2.677 3.368.275 0 1.128-.397 1.896-.883 1.937-1.227.61-4.086-1.896-4.086-1.135 0-2.339.72-2.677 1.601m81.15-.557c-.645 1.044 1.164 3.956 2.458 3.956 2.205 0 4.521-2.994 3.069-3.966-1.96-1.311-4.714-1.306-5.527.01" fill-rule="evenodd"/></svg>